<svg xmlns="http://www.w3.org/2000/svg" xmlns:xlink="http://www.w3.org/1999/xlink" viewBox="0 0 400 312">
  <defs>
    <style>
      .cls-1 {
        fill: none;
      }

      .cls-2 {
        clip-path: url(#clip-Browser_Window);
      }

      .cls-13, .cls-3 {
        fill: #1c1d21;
      }

      .cls-4 {
        fill: #31353d;
      }

      .cls-5 {
        clip-path: url(#clip-path);
      }

      .cls-11, .cls-6, .cls-8 {
        fill: #92cdcf;
      }

      .cls-7 {
        clip-path: url(#clip-path-2);
      }

      .cls-8 {
        font-size: 60px;
        font-family: SegoeUI, Segoe UI;
      }

      .cls-10, .cls-9 {
        fill: #eeeff7;
      }

      .cls-11, .cls-9 {
        font-size: 40px;
      }

      .cls-10, .cls-11, .cls-9 {
        font-family: SegoeUI-Italic, Segoe UI;
        font-style: italic;
      }

      .cls-10 {
        font-size: 20px;
      }

      .cls-12, .cls-13 {
        stroke: none;
      }
    </style>
    <clipPath id="clip-path">
      <rect class="cls-1" width="55" height="15"/>
    </clipPath>
    <clipPath id="clip-path-2">
      <rect class="cls-1" width="28" height="22"/>
    </clipPath>
    <clipPath id="clip-Browser_Window">
      <rect width="400" height="312"/>
    </clipPath>
  </defs>
  <g id="Browser_Window" data-name="Browser Window" class="cls-2">
    <path id="Rectangle_1" data-name="Rectangle 1" class="cls-3" d="M5,0H395a5,5,0,0,1,5,5V30a0,0,0,0,1,0,0H0a0,0,0,0,1,0,0V5A5,5,0,0,1,5,0Z"/>
    <g id="Path_1" data-name="Path 1" class="cls-4" transform="translate(0 29)">
      <path class="cls-12" d="M 395 279 L 5 279 C 4.448578834533691 279 4 278.5514221191406 4 278 L 4 4 L 396 4 L 396 278 C 396 278.5514221191406 395.5514221191406 279 395 279 Z"/>
      <path class="cls-13" d="M 392 275 L 392 8 L 8 8 L 8 275 L 392 275 M 395 283 L 5 283 C 2.238588333129883 283 0 280.7614135742188 0 278 L 0 0 L 400 0 L 400 278 C 400 280.7614135742188 397.7614135742188 283 395 283 Z"/>
    </g>
    <g id="Repeat_Grid_1" data-name="Repeat Grid 1" class="cls-5" transform="translate(20 12)">
      <g transform="translate(-9 -8)">
        <circle id="Ellipse_1" data-name="Ellipse 1" class="cls-6" cx="5.5" cy="5.5" r="5.5" transform="translate(9 8)"/>
      </g>
      <g transform="translate(10 -8)">
        <circle id="Ellipse_1-2" data-name="Ellipse 1" class="cls-6" cx="5.5" cy="5.5" r="5.5" transform="translate(9 8)"/>
      </g>
      <g transform="translate(29 -8)">
        <circle id="Ellipse_1-3" data-name="Ellipse 1" class="cls-6" cx="5.5" cy="5.5" r="5.5" transform="translate(9 8)"/>
      </g>
    </g>
    <g id="Repeat_Grid_2" data-name="Repeat Grid 2" class="cls-7" transform="translate(352 7)">
      <g transform="translate(-351 -10)">
        <rect id="Rectangle_3" data-name="Rectangle 3" class="cls-6" width="26" height="4" rx="2" transform="translate(351 11)"/>
      </g>
      <g transform="translate(-351 -2)">
        <rect id="Rectangle_3-2" data-name="Rectangle 3" class="cls-6" width="26" height="4" rx="2" transform="translate(351 11)"/>
      </g>
      <g transform="translate(-351 6)">
        <rect id="Rectangle_3-3" data-name="Rectangle 3" class="cls-6" width="26" height="4" rx="2" transform="translate(351 11)"/>
      </g>
    </g>
    <text id="_" data-name="&lt;" class="cls-8" transform="translate(22 132)"><tspan x="0" y="0">&lt;</tspan></text>
    <text id="_2" data-name="&lt;" class="cls-8" transform="translate(379 210) rotate(180)"><tspan x="0" y="0">&lt;</tspan></text>
    <text id="ABOUTME" class="cls-9" transform="translate(60 129)"><tspan x="0" y="0">ABOUTME</tspan></text>
    <text id="name_Dan_Craycraft_" data-name="name=&quot;Dan Craycraft&quot;" class="cls-10" transform="translate(62.017 161)"><tspan x="0" y="0">name=&quot;Dan Craycraft&quot;</tspan></text>
    <text id="label_Front-End_Develoer_" data-name="label=&quot;Front-End Develoer&quot;" class="cls-10" transform="translate(61 184.539)"><tspan x="0" y="0">label=&quot;Front-End Develoer&quot;</tspan></text>
    <text id="type_JavaScript_" data-name="type=&quot;JavaScript&quot;" class="cls-10" transform="translate(61 208.077)"><tspan x="0" y="0">type=&quot;JavaScript&quot;</tspan></text>
    <text id="onClick_this.developThings_" data-name="onClick={ this.developThings }" class="cls-10" transform="translate(61 231.616)"><tspan x="0" y="0">onClick={ this.developThings }</tspan></text>
    <text id="_3" data-name="/" class="cls-11" transform="translate(323 238)"><tspan x="0" y="0">/</tspan></text>
  </g>
</svg>
